<?xml version="1.0" standalone="no"?>
<!DOCTYPE svg PUBLIC "-//W3C//DTD SVG 20010904//EN"
 "http://www.w3.org/TR/2001/REC-SVG-20010904/DTD/svg10.dtd">
<svg version="1.0" xmlns="http://www.w3.org/2000/svg"
 width="438.000000pt" height="136.000000pt" viewBox="0 0 438.000000 136.000000"
 preserveAspectRatio="xMidYMid meet">

<g transform="translate(0.000000,136.000000) scale(0.100000,-0.100000)"
fill="#000000" stroke="none">
<path d="M730 981 c0 -23 13 -41 61 -84 l60 -55 6 -299 c3 -164 9 -304 13
-311 5 -11 10 -11 23 2 34 35 40 87 44 373 l4 283 -33 31 c-44 41 -128 89
-155 89 -19 0 -23 -6 -23 -29z"/>
<path d="M2305 915 c-22 -7 -70 -19 -107 -26 -60 -11 -66 -14 -58 -30 15 -27
12 -29 -16 -19 -40 15 -104 13 -104 -4 0 -13 38 -55 89 -98 11 -9 25 -36 32
-60 14 -50 35 -71 58 -59 10 6 26 4 46 -7 16 -8 64 -17 106 -20 68 -4 79 -2
98 17 18 18 21 33 21 105 0 76 2 87 26 115 31 37 24 50 -37 82 -43 22 -95 23
-154 4z m55 -163 c0 -68 -5 -72 -76 -72 -43 0 -44 1 -44 33 0 17 -7 45 -15 61
-8 15 -15 29 -15 30 0 1 34 3 75 4 l75 3 0 -59z"/>
<path d="M645 861 c-6 -11 12 -49 44 -91 11 -14 21 -44 24 -66 l5 -42 -59 -4
c-32 -2 -62 -8 -66 -12 -4 -4 -1 -19 8 -34 12 -23 22 -27 67 -30 l52 -3 0
-130 c0 -120 1 -129 19 -129 13 0 25 15 40 49 19 45 21 68 21 234 l0 185 -32
27 c-18 15 -41 30 -52 35 -49 18 -65 20 -71 11z"/>
<path d="M453 794 c-3 -8 0 -33 7 -54 9 -28 10 -46 2 -69 -15 -42 -62 -108
-111 -156 -49 -47 -52 -65 -11 -65 46 0 94 24 123 61 l27 34 38 -44 c34 -39
43 -44 82 -45 54 -1 65 21 27 56 -13 13 -38 40 -56 60 l-32 37 15 49 c13 46
13 52 -4 79 -21 35 -67 73 -87 73 -7 0 -16 -7 -20 -16z"/>
<path d="M1350 645 l0 -125 30 0 c29 0 30 1 30 50 0 49 1 50 30 50 25 0 30 4
30 25 0 21 -5 25 -30 25 -29 0 -30 1 -30 50 0 49 -1 50 -30 50 l-30 0 0 -125z"/>
<path d="M1840 555 l0 -215 25 0 25 0 0 215 0 215 -25 0 -25 0 0 -215z"/>
<path d="M3225 755 c-22 -8 -41 -15 -42 -15 0 0 -6 -13 -11 -29 -12 -35 3 -70
38 -88 14 -7 59 -13 100 -13 82 0 119 13 136 49 16 32 0 75 -34 91 -43 20
-141 22 -187 5z m163 -47 c36 -30 -2 -58 -81 -58 -41 0 -58 5 -72 20 -34 37
15 63 100 53 22 -3 46 -10 53 -15z"/>
<path d="M3890 650 l0 -120 25 0 25 0 0 120 0 120 -25 0 -25 0 0 -120z"/>
<path d="M1160 725 c0 -48 -33 -110 -70 -132 -35 -21 -36 -24 -10 -48 19 -17
21 -17 66 28 l46 47 18 -23 c10 -12 31 -30 48 -39 28 -17 30 -17 47 2 18 20
13 40 -10 40 -7 0 -27 16 -44 35 -25 29 -31 45 -31 80 0 43 -1 45 -30 45 -28
0 -30 -3 -30 -35z"/>
<path d="M2710 680 l0 -80 140 0 140 0 0 25 0 25 -110 0 -110 0 0 30 0 30 110
0 110 0 0 25 0 25 -140 0 -140 0 0 -80z"/>
<path d="M3688 710 c-5 -54 -43 -114 -84 -132 -23 -11 -23 -12 -8 -30 24 -26
33 -23 81 24 l42 41 41 -36 c46 -42 51 -44 73 -19 21 23 21 32 2 32 -8 0 -30
15 -49 34 -26 27 -36 46 -41 85 -6 44 -10 51 -30 51 -20 0 -23 -6 -27 -50z"/>
<path d="M1613 739 c-100 -30 -96 -171 6 -199 74 -20 142 16 156 81 18 82 -69
146 -162 118z m89 -56 c39 -35 11 -103 -43 -103 -36 0 -59 24 -59 60 0 54 61
80 102 43z"/>
<path d="M2253 569 c-14 -14 2 -53 36 -83 12 -11 21 -31 21 -46 l0 -27 -109
-6 c-118 -7 -185 -27 -202 -59 -8 -16 -7 -24 4 -35 12 -12 27 -13 91 -4 109
15 268 13 351 -4 85 -18 117 -19 133 -3 32 32 -10 83 -77 93 -98 16 -91 11
-91 70 0 50 -3 56 -35 80 -39 30 -104 43 -122 24z"/>
<path d="M3110 555 l0 -25 200 0 200 0 0 25 0 25 -200 0 -200 0 0 -25z"/>
<path d="M2650 535 l0 -25 200 0 200 0 0 25 0 25 -200 0 -200 0 0 -25z"/>
<path d="M1223 509 c-58 -11 -82 -25 -89 -54 -17 -69 27 -105 131 -105 110 0
154 31 143 101 -6 45 -98 74 -185 58z m118 -58 c22 -18 23 -21 8 -36 -21 -21
-95 -30 -131 -16 -32 12 -37 44 -10 60 30 18 107 13 133 -8z"/>
<path d="M3170 425 l0 -75 140 0 140 0 0 75 0 75 -140 0 -140 0 0 -75z m228 3
l3 -28 -90 0 c-89 0 -91 1 -91 23 0 13 3 27 7 31 4 4 43 5 88 4 79 -3 80 -3
83 -30z"/>
<path d="M3650 480 c0 -19 7 -20 120 -20 l120 0 0 -60 c0 -57 1 -60 25 -60 25
0 25 1 25 80 l0 80 -145 0 c-138 0 -145 -1 -145 -20z"/>
<path d="M2710 420 l0 -60 145 0 c138 0 145 1 145 20 0 18 -8 20 -117 22
l-118 3 -3 38 c-3 32 -7 37 -28 37 -23 0 -24 -3 -24 -60z"/>
<path d="M1643 463 c-125 -3 -133 -5 -133 -23 0 -19 7 -20 156 -20 l155 0 -3
23 c-3 25 6 24 -175 20z"/>
</g>
</svg>
